<svg xmlns="http://www.w3.org/2000/svg" viewBox="0 0 1600 900" preserveAspectRatio="xMidYMid slice">
  <defs>
    <linearGradient id="g" x1="0" y1="0" x2="1" y2="1">
      <stop offset="0%" stop-color="#1f4d42"/>
      <stop offset="45%" stop-color="#2f6b5a"/>
      <stop offset="100%" stop-color="#c47b17"/>
    </linearGradient>
    <radialGradient id="glow" cx="70%" cy="30%" r="45%">
      <stop offset="0%" stop-color="#ffd789" stop-opacity="0.55"/>
      <stop offset="100%" stop-color="#ffd789" stop-opacity="0"/>
    </radialGradient>
  </defs>
  <rect width="1600" height="900" fill="url(#g)"/>
  <rect width="1600" height="900" fill="url(#glow)"/>
  <g opacity="0.18" fill="#fff8ea">
    <circle cx="220" cy="180" r="90"/>
    <circle cx="1320" cy="220" r="120"/>
    <circle cx="980" cy="680" r="140"/>
    <circle cx="360" cy="720" r="100"/>
  </g>
  <g transform="translate(980 260)" fill="none" stroke="#fff8ea" stroke-width="10" stroke-linecap="round" stroke-linejoin="round" opacity="0.9">
    <path d="M40 20h180l40 70H0l40-70z"/>
    <path d="M0 90h260v180a40 40 0 0 1-40 40H40a40 40 0 0 1-40-40V90z"/>
    <circle cx="80" cy="170" r="6" fill="#fff8ea"/>
    <circle cx="140" cy="210" r="6" fill="#fff8ea"/>
    <circle cx="180" cy="160" r="6" fill="#fff8ea"/>
  </g>
</svg>
